HIERARCHY
ROOT joint_Root
{
	OFFSET 0.0 0.0 0.0
	CHANNELS 6 Xposition Yposition Zposition Zrotation Xrotation Yrotation 
	JOINT Hips
	{
		OFFSET -0.726466 93.3139 -2.00062
		CHANNELS 6 Xposition Yposition Zposition Zrotation Xrotation Yrotation 
		JOINT Spine
		{
			OFFSET 15.7357 0.0 0.0
			CHANNELS 6 Xposition Yposition Zposition Zrotation Xrotation Yrotation 
			JOINT Chest
			{
				OFFSET 8.98455 -0.406207 0.0
				CHANNELS 6 Xposition Yposition Zposition Zrotation Xrotation Yrotation 
				JOINT Neck
				{
					OFFSET 16.3773 0.0 0.0
					CHANNELS 6 Xposition Yposition Zposition Zrotation Xrotation Yrotation 
					JOINT Head
					{
						OFFSET 6.45672 0.0 0.0
						CHANNELS 6 Xposition Yposition Zposition Zrotation Xrotation Yrotation 
						End Site
						{
							OFFSET 0.0 0.0 0.0
						}
					}
				}
				JOINT Shoulder_L
				{
					OFFSET 12.9942 -0.242716 4.98039
					CHANNELS 6 Xposition Yposition Zposition Zrotation Xrotation Yrotation 
					JOINT UpperArm_L
					{
						OFFSET 5.34809 0.0 0.0
						CHANNELS 6 Xposition Yposition Zposition Zrotation Xrotation Yrotation 
						JOINT LowerArm_L
						{
							OFFSET 24.3286 1.87007e-05 0.0
							CHANNELS 6 Xposition Yposition Zposition Zrotation Xrotation Yrotation 
							JOINT Hand_L
							{
								OFFSET 22.2916 0.0 0.0
								CHANNELS 6 Xposition Yposition Zposition Zrotation Xrotation Yrotation 
								End Site
								{
									OFFSET 0.0 0.0 0.0
								}
							}
						}
					}
				}
				JOINT Shoulder_R
				{
					OFFSET 12.9945 -0.242716 -4.98039
					CHANNELS 6 Xposition Yposition Zposition Zrotation Xrotation Yrotation 
					JOINT UpperArm_R
					{
						OFFSET -5.34813 0.0 0.0
						CHANNELS 6 Xposition Yposition Zposition Zrotation Xrotation Yrotation 
						JOINT LowerArm_R
						{
							OFFSET -24.3289 0.000322201 0.0
							CHANNELS 6 Xposition Yposition Zposition Zrotation Xrotation Yrotation 
							JOINT Hand_R
							{
								OFFSET -22.2915 -0.000108084 0.0
								CHANNELS 6 Xposition Yposition Zposition Zrotation Xrotation Yrotation 
								End Site
								{
									OFFSET 0.0 0.0 0.0
								}
							}
						}
					}
				}
			}
		}
		JOINT UpperLeg_L
		{
			OFFSET -2.19248 -6.46944 0.0
			CHANNELS 6 Xposition Yposition Zposition Zrotation Xrotation Yrotation 
			JOINT LowerLeg_L
			{
				OFFSET 39.0811 0.0 -1.23785e-05
				CHANNELS 6 Xposition Yposition Zposition Zrotation Xrotation Yrotation 
				JOINT Foot_L
				{
					OFFSET 40.9854 0.0 -1.26872e-05
					CHANNELS 6 Xposition Yposition Zposition Zrotation Xrotation Yrotation 
					JOINT Toes_L
					{
						OFFSET 11.7543 0.0 0.0
						CHANNELS 6 Xposition Yposition Zposition Zrotation Xrotation Yrotation 
						End Site
						{
							OFFSET 0.0 0.0 0.0
						}
					}
				}
			}
		}
		JOINT UpperLeg_R
		{
			OFFSET -2.19251 6.46944 0.0
			CHANNELS 6 Xposition Yposition Zposition Zrotation Xrotation Yrotation 
			JOINT LowerLeg_R
			{
				OFFSET -39.0811 -0.00228153 -0.0401928
				CHANNELS 6 Xposition Yposition Zposition Zrotation Xrotation Yrotation 
				JOINT Foot_R
				{
					OFFSET -40.9854 0.0 0.0
					CHANNELS 6 Xposition Yposition Zposition Zrotation Xrotation Yrotation 
					JOINT Toes_R
					{
						OFFSET -11.7543 0.0 0.0
						CHANNELS 6 Xposition Yposition Zposition Zrotation Xrotation Yrotation 
						End Site
						{
							OFFSET 0.0 0.0 0.0
						}
					}
				}
			}
		}
	}
}
MOTION
Frames:	6
Frame Time:	0.0333333
0.000000 0.000000 0.000000 0.000000 0.000000 -0.000000 146.834000 91.705100 -171.044000 85.026100 2.200980 1.289660 15.735700 0.000005 -0.000001 77.696700 82.711900 -76.343700 8.984550 -0.406207 -0.000000 6.521050 -3.111250 2.880930 16.377300 -0.000001 -0.000001 -0.314520 -1.122120 -0.602640 6.456720 -0.000001 -0.000000 -0.897360 -0.000822 -0.046567 12.994200 -0.242716 4.980390 -89.758200 -0.770862 -72.580200 5.348090 -0.000007 -0.000001 -59.829800 34.455100 -26.919300 24.328600 0.000019 0.000005 -2.385780 -2.673970 -41.767300 22.291600 -0.000001 0.000005 10.904600 5.562850 -9.327620 12.994500 -0.242716 -4.980390 89.099700 2.841760 -72.412300 -5.348130 -0.000001 -0.000004 -75.039200 24.227000 -1.625340 -24.328900 0.000322 -0.000009 1.935640 13.834700 -8.048870 -22.291500 -0.000108 -0.000004 7.016560 5.315770 -0.373765 -2.192480 -6.469440 -0.000000 -178.258000 -3.999850 -1.143910 39.081100 -0.000007 -0.000012 0.009967 -0.022990 23.438100 40.985400 -0.000006 -0.000013 8.637350 1.792260 -72.166100 11.754300 -0.000000 0.000003 -0.140237 -0.155337 -15.690000 -2.192510 6.469440 -0.000001 -179.050000 10.960200 157.047000 -39.081100 -0.002282 -0.040193 0.065830 -0.040939 56.821400 -40.985400 0.000008 0.000006 1.589840 -6.655680 -54.227200 -11.754300 -0.000006 -0.000006 -0.023361 -0.185240 -24.148200
0.000000 0.000000 0.000000 0.000000 0.000000 -0.000000 146.867000 91.863000 -168.704000 84.281300 3.005640 1.070640 15.735700 0.000005 -0.000001 74.371200 82.690000 -72.687700 8.984550 -0.406207 -0.000000 6.385420 -3.947410 3.584690 16.377300 -0.000001 -0.000001 0.013709 -1.192110 -0.632754 6.456720 -0.000001 -0.000000 -0.779720 0.746730 -0.361270 12.994200 -0.242716 4.980390 -89.637300 -1.183180 -72.957000 5.348090 -0.000007 -0.000001 -56.901900 31.865700 -32.971400 24.328600 0.000019 0.000005 -1.767250 -1.877370 -43.285800 22.291600 -0.000001 0.000005 10.862500 5.553590 -8.877830 12.994500 -0.242716 -4.980390 89.071000 2.819480 -71.754500 -5.348130 -0.000001 -0.000004 -73.910500 23.505900 -0.542581 -24.328900 0.000322 -0.000009 1.987100 12.930500 -8.818130 -22.291500 -0.000108 -0.000004 7.708040 5.317110 -0.412160 -2.192480 -6.469440 -0.000000 -177.197000 -3.938170 1.584700 39.081100 -0.000007 -0.000012 0.001451 -0.003858 20.611900 40.985400 -0.000006 -0.000013 8.541450 2.624750 -72.023600 11.754300 -0.000000 0.000003 -0.284970 -0.338461 -15.693800 -2.192510 6.469440 -0.000001 -176.818000 11.706200 155.064000 -39.081100 -0.002282 -0.040193 0.036254 -0.030032 47.694300 -40.985400 0.000008 0.000006 1.587760 -7.399260 -54.375200 -11.754300 -0.000006 -0.000006 -0.023363 -0.185253 -24.148800
0.000000 0.000000 0.000000 0.000000 0.000000 -0.000000 146.899000 91.668900 -166.313000 83.956700 3.304200 0.610162 15.735700 0.000005 -0.000001 71.998100 82.727400 -70.141400 8.984550 -0.406207 -0.000000 6.157770 -4.508810 3.953450 16.377300 -0.000001 -0.000001 0.197920 -1.083060 -0.636825 6.456720 -0.000001 -0.000000 -0.859298 1.420190 -0.735489 12.994200 -0.242716 4.980390 -89.495700 -1.686270 -73.347100 5.348090 -0.000007 -0.000001 -55.718900 28.508700 -37.260300 24.328600 0.000019 0.000005 -1.151570 -1.184690 -44.195100 22.291600 -0.000001 0.000005 11.860200 5.553230 -8.859240 12.994500 -0.242716 -4.980390 88.998700 2.939240 -71.177900 -5.348130 -0.000001 -0.000004 -72.684500 23.313800 -0.069196 -24.328900 0.000322 -0.000009 2.052800 12.526200 -9.388830 -22.291500 -0.000108 -0.000004 8.723150 5.331340 -0.824329 -2.192480 -6.469440 -0.000000 -176.555000 -4.165480 3.538150 39.081100 -0.000007 -0.000012 -0.000409 0.001181 19.086100 40.985400 -0.000006 -0.000013 8.379860 3.351060 -72.393900 11.754300 -0.000000 0.000003 -0.703818 -0.871678 -16.366200 -2.192510 6.469440 -0.000001 -174.726000 12.924300 153.750000 -39.081100 -0.002282 -0.040193 0.016960 -0.018266 36.818300 -40.985400 0.000008 0.000006 0.932333 -5.701880 -52.267000 -11.754300 -0.000006 -0.000006 -0.024119 -0.189121 -24.308500
0.000000 0.000000 0.000000 0.000000 0.000000 -0.000000 146.933000 91.261500 -163.711000 84.183900 3.421630 0.024625 15.735700 0.000005 -0.000001 69.810800 82.812700 -67.964100 8.984550 -0.406207 -0.000000 5.825660 -4.979780 3.944480 16.377300 -0.000001 -0.000001 0.303603 -0.940776 -0.579241 6.456720 -0.000001 -0.000000 -1.076790 2.016540 -1.194410 12.994200 -0.242716 4.980390 -89.395900 -2.068570 -73.715900 5.348090 -0.000007 -0.000001 -55.459000 25.237600 -40.123500 24.328600 0.000019 0.000005 -1.469940 -1.478510 -44.843100 22.291600 -0.000001 0.000005 13.254300 5.556820 -9.031580 12.994500 -0.242716 -4.980390 88.908400 3.131480 -70.771400 -5.348130 -0.000001 -0.000004 -71.633400 23.116900 0.019927 -24.328900 0.000322 -0.000009 2.130840 12.368700 -9.858760 -22.291500 -0.000108 -0.000004 9.732770 5.334300 -0.910601 -2.192480 -6.469440 -0.000000 -176.208000 -5.392320 5.134880 39.081100 -0.000007 -0.000012 -0.001013 0.003040 18.421600 40.985400 -0.000006 -0.000013 8.213710 4.911560 -73.045300 11.754300 -0.000000 0.000003 -1.157190 -1.432470 -17.191500 -2.192510 6.469440 -0.000001 -172.700000 14.990100 153.130000 -39.081100 -0.002282 -0.040193 0.004064 -0.001601 25.164800 -40.985400 0.000008 0.000006 -1.880400 -0.771120 -49.354600 -11.754300 -0.000006 -0.000006 -0.024146 -0.189255 -24.314100
0.000000 0.000000 0.000000 0.000000 0.000000 -0.000000 146.953000 90.611300 -160.751000 84.832600 3.671460 -0.637932 15.735700 0.000005 -0.000001 67.020200 82.962100 -65.292400 8.984550 -0.406207 -0.000000 5.297860 -5.520540 3.709400 16.377300 -0.000001 -0.000001 0.456780 -0.871306 -0.604456 6.456720 -0.000001 -0.000000 -1.284670 2.476820 -1.588370 12.994200 -0.242716 4.980390 -89.340500 -2.300090 -73.995500 5.348090 -0.000007 -0.000001 -55.654500 22.507500 -41.864400 24.328600 0.000019 0.000005 -1.998910 -1.984480 -45.225200 22.291600 -0.000001 0.000005 14.292700 5.563760 -9.372190 12.994500 -0.242716 -4.980390 88.859100 3.223340 -70.496300 -5.348130 -0.000001 -0.000004 -71.006300 22.454900 0.008371 -24.328900 0.000322 -0.000009 2.206340 12.441800 -10.143300 -22.291500 -0.000108 -0.000004 10.538800 5.335520 -0.946916 -2.192480 -6.469440 -0.000000 -175.947000 -7.154080 6.582740 39.081100 -0.000007 -0.000012 -0.003553 0.010624 18.489300 40.985400 -0.000006 -0.000013 8.253650 7.351000 -73.952700 11.754300 -0.000000 0.000003 -1.447360 -1.749980 -18.721200 -2.192510 6.469440 -0.000001 -170.532000 18.238000 153.066000 -39.081100 -0.002282 -0.040193 -0.002653 0.023370 14.362200 -40.985400 0.000008 0.000006 -8.133750 4.835190 -47.577700 -11.754300 -0.000006 -0.000006 -0.025182 -0.194468 -24.529500
0.000000 0.000000 0.000000 0.000000 0.000000 -0.000000 146.797000 89.920800 -157.422000 85.096100 4.050030 -1.383170 15.735700 0.000005 -0.000001 64.093300 83.199200 -62.331000 8.984550 -0.406207 -0.000000 4.583510 -5.981230 3.762850 16.377300 -0.000001 -0.000001 0.568228 -0.836894 -0.626637 6.456720 -0.000001 -0.000000 -1.281840 2.631960 -1.842560 12.994200 -0.242716 4.980390 -89.370300 -2.210050 -74.091000 5.348090 -0.000007 -0.000001 -55.595500 20.805700 -42.766200 24.328600 0.000019 0.000005 -2.550240 -2.512230 -45.458600 22.291600 -0.000001 0.000005 14.889800 5.568020 -9.586880 12.994500 -0.242716 -4.980390 88.708600 3.623790 -70.370500 -5.348130 -0.000001 -0.000004 -70.382400 21.469900 -0.081784 -24.328900 0.000322 -0.000009 2.184640 12.296800 -10.159700 -22.291500 -0.000108 -0.000004 10.822100 5.332190 -0.849634 -2.192480 -6.469440 -0.000000 -175.091000 -8.311120 7.498640 39.081100 -0.000007 -0.000012 -0.008449 0.023466 19.801700 40.985400 -0.000006 -0.000013 7.988770 9.717800 -74.923300 11.754300 -0.000000 0.000003 -0.730503 -0.876706 -19.638700 -2.192510 6.469440 -0.000001 -167.863000 20.331600 152.390000 -39.081100 -0.002282 -0.040193 0.000722 0.019710 7.574180 -40.985400 0.000008 0.000006 -13.512000 4.769110 -45.051000 -11.754300 -0.000006 -0.000006 -0.025338 -0.195241 -24.561500
